<svg width="16" height="20" viewBox="0 0 16 20" fill="none" xmlns="http://www.w3.org/2000/svg">
<path d="M3.45654 8.37109C3.72607 8.37109 3.89893 8.21582 3.9751 7.90527L4.22998 7.14062H5.8208L6.10205 7.90527C6.13721 8.06348 6.1958 8.18066 6.27783 8.25684C6.36572 8.33301 6.47412 8.37109 6.60303 8.37109C6.76123 8.37109 6.88428 8.32715 6.97217 8.23926C7.06006 8.15137 7.104 8.03125 7.104 7.87891C7.104 7.84375 7.09814 7.79688 7.08643 7.73828C7.08057 7.67969 7.06592 7.62109 7.04248 7.5625L5.8208 4.13477C5.68018 3.73047 5.41357 3.52832 5.021 3.52832C4.646 3.52832 4.38818 3.73047 4.24756 4.13477L3.02588 7.5625C2.979 7.68555 2.95557 7.79102 2.95557 7.87891C2.95557 8.03125 2.99951 8.15137 3.0874 8.23926C3.18115 8.32715 3.3042 8.37109 3.45654 8.37109ZM4.44092 6.34961L5.00342 4.56543H5.05615L5.61865 6.34961H4.44092ZM8.9585 5.08398H11.8677C12.0317 5.08398 12.1665 5.02832 12.272 4.91699C12.3833 4.7998 12.439 4.66211 12.439 4.50391C12.439 4.33984 12.3833 4.20508 12.272 4.09961C12.1665 3.98828 12.0317 3.93262 11.8677 3.93262H8.9585C8.78857 3.93262 8.64795 3.98828 8.53662 4.09961C8.43115 4.20508 8.37842 4.33984 8.37842 4.50391C8.37842 4.66211 8.43115 4.7998 8.53662 4.91699C8.64795 5.02832 8.78857 5.08398 8.9585 5.08398ZM8.9585 8.08984H11.8677C12.0317 8.08984 12.1665 8.03418 12.272 7.92285C12.3833 7.81152 12.439 7.67383 12.439 7.50977C12.439 7.35156 12.3833 7.21973 12.272 7.11426C12.1665 7.00293 12.0317 6.94727 11.8677 6.94727H8.9585C8.78857 6.94727 8.64795 7.00293 8.53662 7.11426C8.43115 7.21973 8.37842 7.35156 8.37842 7.50977C8.37842 7.67383 8.43115 7.81152 8.53662 7.92285C8.64795 8.03418 8.78857 8.08984 8.9585 8.08984ZM2.86768 15.5518H3.86084L5.00342 14.3916C5.1499 14.251 5.31982 14.1807 5.51318 14.1807C5.70068 14.1807 5.87646 14.251 6.04053 14.3916L6.75244 15.0508L8.54541 13.46C8.63916 13.3721 8.73877 13.3105 8.84424 13.2754C8.94971 13.2344 9.04932 13.2139 9.14307 13.2139C9.25439 13.2139 9.35986 13.2314 9.45947 13.2666C9.56494 13.3018 9.65869 13.3662 9.74072 13.46L11.4722 15.4551H12.4653V11.333C12.4653 10.5596 12.0757 10.1729 11.2964 10.1729H4.04541C3.67627 10.1729 3.38623 10.2725 3.17529 10.4717C2.97021 10.665 2.86768 10.9521 2.86768 11.333V15.5518ZM6.11084 13.46C5.85303 13.46 5.63037 13.3691 5.44287 13.1875C5.26123 13 5.17041 12.7773 5.17041 12.5195C5.17041 12.2617 5.26123 12.0391 5.44287 11.8516C5.63037 11.6641 5.85303 11.5762 6.11084 11.5879C6.36865 11.5938 6.58838 11.6875 6.77002 11.8691C6.95752 12.0449 7.05127 12.2617 7.05127 12.5195C7.05127 12.7773 6.95752 13 6.77002 13.1875C6.58838 13.3691 6.36865 13.46 6.11084 13.46ZM0.125488 16.29V3.02734C0.125488 2.08398 0.365723 1.36914 0.846191 0.882812C1.32666 0.390625 2.03857 0.144531 2.98193 0.144531H12.3423C13.2856 0.144531 13.9976 0.390625 14.478 0.882812C14.9585 1.36914 15.1987 2.08398 15.1987 3.02734V16.29C15.1987 17.2393 14.9585 17.957 14.478 18.4434C13.9976 18.9297 13.2856 19.1729 12.3423 19.1729H2.98193C2.03857 19.1729 1.32666 18.9297 0.846191 18.4434C0.365723 17.957 0.125488 17.2393 0.125488 16.29Z" fill="#0A0C06"/>
</svg>
