<svg width="21" height="19" viewBox="0 0 21 19" fill="none" xmlns="http://www.w3.org/2000/svg">
<path d="M0.400635 1.36816C0.400635 1.15137 0.479736 0.960938 0.637939 0.796875C0.802002 0.632812 0.995361 0.550781 1.21802 0.550781H4.22388C4.71606 0.550781 5.05591 0.647461 5.24341 0.84082C5.43677 1.02832 5.55981 1.30957 5.61255 1.68457L5.76196 2.65137H19.8596C20.1643 2.65137 20.3987 2.7334 20.5627 2.89746C20.7327 3.05566 20.8176 3.25781 20.8176 3.50391C20.8176 3.55664 20.8147 3.61816 20.8088 3.68848C20.803 3.75293 20.7942 3.81445 20.7825 3.87305L20.1233 8.28516C20.0237 8.95898 19.7922 9.48633 19.429 9.86719C19.0657 10.248 18.5471 10.4385 17.8733 10.4385H6.88696L7.0188 11.3438C7.0481 11.5723 7.1272 11.7568 7.2561 11.8975C7.39087 12.0381 7.56372 12.1084 7.77466 12.1084H17.8118C18.0168 12.1084 18.1956 12.1816 18.3479 12.3281C18.5061 12.4688 18.5852 12.6533 18.5852 12.8818C18.5852 13.1045 18.5061 13.2891 18.3479 13.4355C18.1956 13.582 18.0168 13.6553 17.8118 13.6553H7.5813C6.90747 13.6553 6.38892 13.4648 6.02563 13.084C5.66821 12.7031 5.4397 12.1846 5.34009 11.5283L3.97778 2.20312H1.21802C0.995361 2.20312 0.802002 2.12109 0.637939 1.95703C0.479736 1.79297 0.400635 1.59668 0.400635 1.36816ZM6.76392 16.5293C6.76392 16.248 6.8313 15.9902 6.96606 15.7559C7.10669 15.5273 7.29126 15.3428 7.51978 15.2021C7.75415 15.0674 8.01196 15 8.29321 15C8.71509 15 9.07544 15.1465 9.37427 15.4395C9.6731 15.7383 9.82251 16.1016 9.82251 16.5293C9.82251 16.9512 9.6731 17.3086 9.37427 17.6016C9.07544 17.9004 8.71509 18.0498 8.29321 18.0498C8.01196 18.0498 7.75415 17.9824 7.51978 17.8477C7.29126 17.7129 7.10669 17.5283 6.96606 17.2939C6.8313 17.0654 6.76392 16.8105 6.76392 16.5293ZM14.8938 16.5293C14.8938 16.248 14.9612 15.9902 15.0959 15.7559C15.2366 15.5273 15.4211 15.3428 15.6497 15.2021C15.884 15.0674 16.1418 15 16.4231 15C16.8508 15 17.2112 15.1465 17.5042 15.4395C17.803 15.7383 17.9524 16.1016 17.9524 16.5293C17.9524 16.9512 17.803 17.3086 17.5042 17.6016C17.2112 17.9004 16.8508 18.0498 16.4231 18.0498C16.0012 18.0498 15.6409 17.9004 15.342 17.6016C15.0432 17.3086 14.8938 16.9512 14.8938 16.5293Z" fill="#0A0C06"/>
</svg>
